<?xml version="1.0" encoding="utf-8"?>
<!-- Generator: Adobe Illustrator 27.6.1, SVG Export Plug-In . SVG Version: 6.00 Build 0)  -->
<svg version="1.1" id="Layer_2_00000125591693609619419630000010551448392994794881_"
	 xmlns="http://www.w3.org/2000/svg" xmlns:xlink="http://www.w3.org/1999/xlink" x="0px" y="0px" viewBox="400 0 1667.4 390.1"
	 style="enable-background:new 0 0 1667.4 390.1;" xml:space="preserve">
<style type="text/css">
	.st0{fill:#FFFFFF;}
</style>
<g id="Capa_1">
	<polygon class="st0" points="1097.5,97.1 944,97.1 941.3,105.6 934.3,127.7 931.6,147.1 979.1,147.1 961.4,272.3 1025.7,272.3 
		1043.3,147.1 1090.5,147.1 	"/>
	<polygon class="st0" points="1089.8,272.3 1154.1,272.3 1178.7,97.1 1114.4,97.1 	"/>
	<path class="st0" d="M1324.1,217.6c-8.6,3.6-21,6.5-32.9,6.5c-24.4,0-39.2-11.7-39.2-35c0-25.7,18.2-44.6,48.7-44.6
		c11.9,0,23.3,2.9,30.8,6.5l19.2-46.4c-14.8-5.4-35.5-10.9-57.8-10.9c-62,0-106.6,41.5-106.6,102.2c0,51.9,32.4,79.8,82.7,79.8
		c22,0,44.3-5.5,60.7-10.9L1324.1,217.6L1324.1,217.6z"/>
	<polygon class="st0" points="1604.4,223.1 1622,97.1 1557.7,97.1 1533.1,272.3 1660.4,272.3 1667.4,223.1 	"/>
	<polygon class="st0" points="439,97.1 432,147.1 479.4,147.1 461.8,272.3 526.1,272.3 543.7,147.1 590.9,147.1 597.9,97.1 	"/>
	<path class="st0" d="M639.6,97.1l-82.7,175.3h64.6l11.4-29.3h49.3l3.4,29.3h64.3L716.1,97.1L639.6,97.1L639.6,97.1z M649.2,202.1
		l21.5-53.9l6.5,53.9H649.2z"/>
	<path class="st0" d="M760.5,196.9c0,50.3,31.1,78.8,86.3,78.8c23.1,0,49-4.9,67.7-13.2l12.2-87.4h-55.7l-7,49.8
		c-1.8,0.3-3.6,0.5-6.2,0.5c-15.8,0-31.6-9.6-31.6-36c0-23.9,13-45.4,52.1-45.4c15,0,27.2,3.1,36.6,6.2L930,102
		c-13.2-3.9-31.9-8.3-54.5-8.3C806.9,93.7,760.5,135.2,760.5,196.9L760.5,196.9z"/>
	<path class="st0" d="M1488.2,97.1h-76.5l-82.7,175.3h64.6L1405,243h49.3l3.4,29.3h64.3L1488.2,97.1L1488.2,97.1z M1421.4,202.1
		l21.5-53.9l6.5,53.9H1421.4z"/>
</g>
</svg>
