<?xml version="1.0" encoding="UTF-8"?><svg id="Layer_2" xmlns="http://www.w3.org/2000/svg" viewBox="0 0 1667.41 390.08"><defs><style>.cls-1{fill:#fff;}</style></defs><g id="Capa_1"><polygon class="cls-1" points="1097.54 97.07 944.04 97.07 941.34 105.58 934.33 127.69 931.61 147.11 979.06 147.11 961.42 272.33 1025.72 272.33 1043.35 147.11 1090.54 147.11 1097.54 97.07"/><polygon class="cls-1" points="1089.76 272.33 1154.06 272.33 1178.69 97.07 1114.39 97.07 1089.76 272.33"/><path class="cls-1" d="m1324.14,217.63c-8.56,3.63-21,6.48-32.93,6.48-24.37,0-39.15-11.67-39.15-35,0-25.67,18.15-44.59,48.74-44.59,11.93,0,23.33,2.85,30.85,6.48l19.19-46.41c-14.78-5.44-35.52-10.89-57.82-10.89-61.96,0-106.56,41.48-106.56,102.15,0,51.85,32.41,79.85,82.71,79.85,22.04,0,44.33-5.45,60.67-10.89l-5.7-47.19Z"/><polygon class="cls-1" points="1604.4 223.07 1622.04 97.07 1557.74 97.07 1533.11 272.33 1660.41 272.33 1667.41 223.07 1604.4 223.07"/><polygon class="cls-1" points="438.97 97.07 431.97 147.11 479.42 147.11 461.78 272.33 526.08 272.33 543.71 147.11 590.9 147.11 597.9 97.07 438.97 97.07"/><path class="cls-1" d="m639.64,97.07l-82.71,175.26h64.56l11.41-29.3h49.26l3.37,29.3h64.3l-33.7-175.26h-76.48Zm9.59,105l21.52-53.93,6.48,53.93h-28Z"/><path class="cls-1" d="m760.46,196.89c0,50.3,31.11,78.82,86.34,78.82,23.07,0,49-4.93,67.67-13.22l12.19-87.37h-55.74l-7,49.78c-1.82.26-3.63.52-6.22.52-15.82,0-31.63-9.59-31.63-36.04,0-23.85,12.96-45.37,52.11-45.37,15.04,0,27.22,3.11,36.56,6.22l15.3-48.22c-13.22-3.89-31.89-8.3-54.45-8.3-68.71,0-115.11,41.48-115.11,103.19Z"/><polygon class="cls-1" points="152.99 189.26 152.99 189.26 153.67 190.35 152.99 189.26"/><path class="cls-1" d="m330.23,305.41c14.7-18.24,25.37-38.9,31.75-61.49,2.13.93,3.57,3.03,3.57,5.41.02,10.42-1.65,29.92-13.11,43.54-5.6,6.65-13.87,11.26-22.21,12.54Z"/><path class="cls-1" d="m317.16,216.78c-4.38-.82-8.17-3.6-10.24-7.54-4.52-8.6-7.62-15.68-11.56-24.65l-1.57-3.57c-5.84-13.29-9.02-25.46-9.73-37.21-.57-9.54,1.28-20.69,4.98-30.29,19.44,22.52,30.12,51.2,30.12,81.04,0,7.41-.68,14.88-2.01,22.22Z"/><path class="cls-1" d="m310.31,242.76c-.23-.02-.46-.03-.69-.03-3.05,0-5.81,1.87-6.96,4.75-2.28,5.73-4.73,12.72-5.61,20.41,5.63-7.82,10.3-16.24,13.98-25.06-.24-.02-.48-.04-.71-.06Z"/><path class="cls-1" d="m351.34,218.86c-9.23,0-17.73-.35-25.29-1.05,1.36-7.68,2.05-15.5,2.05-23.25,0-33.38-12.38-65.23-34.9-89.81,4.5-7.83,12.18-16.89,23.99-18.15,27.34,30.25,42.39,69.34,42.39,110.17,0,7.31-.5,14.72-1.49,22.04-2.29.04-4.56.06-6.75.06Z"/><path class="cls-1" d="m367.51,215.3c.66-6.18,1-12.4,1-18.54,0-39.46-13.49-77.77-38.09-108.41,1.19.42,2.38.9,3.58,1.45,5.95,2.73,11.48,6.99,16.45,12.69,17.19,19.71,26.21,42.12,25.39,63.08-.89,23.02-3.57,34.93-6.47,46.07-.35,1.37-.99,2.61-1.87,3.66Z"/><path class="cls-1" d="m318.82,304.92c-2.24-.58-4.35-1.46-6.28-2.61-7.72-4.61-12.96-13.56-14.08-24.04,8.22-10.14,14.87-21.39,19.79-33.46,2.09.1,4.21.17,6.33.21,1.3.02,2.6.03,3.91.03,7.34,0,15.27-.35,24.16-1.07-6.48,21.65-17.17,41.4-31.77,58.71l-2.05,2.22Z"/><polygon class="cls-1" points="311.33 316.12 311.33 316.12 313.88 318.66 311.33 316.12"/><polygon class="cls-1" points="281.15 285.93 281.15 285.93 282.21 286.98 281.15 285.93"/><path class="cls-1" d="m287.62,97.5l-1.87,1.87s0,0,.01.01l1.85-1.88Z"/><path class="cls-1" d="m287.62,97.5l-1.87,1.87s0,0,.01.01l1.85-1.88Z"/><path class="cls-1" d="m194.95,390.08c-51.35,0-99.83-19.79-136.5-55.73C22.2,298.82,1.48,251.47,0,200.85h14.38c1.43,0,2.82-.51,3.9-1.45l12.54-10.75,9.4,10.25c1.13,1.24,2.75,1.95,4.42,1.95h10.94l6.78,12.58c1.05,1.95,3.07,3.16,5.28,3.16.4,0,.8-.04,1.19-.12,1.83-.37,3.4-1.6,4.21-3.29l.03-.05.05-.12c.09-.2.19-.47.27-.75l.03-.08v-.05c.1-.33.16-.66.19-.99l4.73-50.56,3.89,67.3c.17,2.9,2.38,5.26,5.27,5.61.25.03.49.04.72.04,2.65,0,4.95-1.7,5.73-4.24l8.38-27.24h13.73c1.76,0,3.43-.77,4.57-2.11l15.3-18,10.17,16.1c1.11,1.75,3,2.8,5.07,2.8h31.64c2.28,4.53,6.89,7.4,12.02,7.4,1.86,0,3.71-.39,5.4-1.13l20.34,20.35c-7.22,5.63-16.14,8.72-25.3,8.72-17.81,0-33.53-11.38-39.12-28.31l-.34-1.03h-4.64c-.75,0-1.55-.09-2.44-.27l-2.41-.5.66,2.37c6.03,21.59,25.88,36.67,48.28,36.67,11.53,0,22.71-4,31.65-11.3l22.89,22.9c-15.06,13.42-34.35,20.8-54.51,20.8s-38.33-6.96-53.14-19.6c-14.65-12.5-24.49-29.76-27.7-48.61l-.21-1.25h-7.49l-1.02,3.32.06.36c7.84,43.29,45.48,74.71,89.51,74.71,22.54,0,44.08-8.3,60.84-23.4l22.82,22.83c-22.98,21.14-52.73,32.77-83.92,32.77-28.14,0-55.72-9.72-77.66-27.37-21.61-17.39-36.96-41.73-43.21-68.54l-.4-1.71-1.63.66c-.72.29-1.45.51-2.15.66-.78.16-1.58.24-2.37.24-.23,0-.46-.01-.69-.02l-2-.12.45,1.95c6.63,28.83,23.06,55.02,46.26,73.73,23.55,19,53.16,29.46,83.4,29.46,33.58,0,65.57-12.55,90.24-35.38l23.88,23.89c-30.9,29.54-71.33,45.8-114.01,45.8s-84.42-16.77-115.5-47.23c-31.03-30.41-48.64-70.99-49.59-114.26l-.07-3.17-7.29,6.25.03.73c1.9,44.45,20.7,85.99,52.93,116.96,32.33,31.06,74.76,48.17,119.49,48.17s86.97-17.03,119.28-47.98l14.94,14.94c-36.42,34.68-84.11,53.77-134.45,53.77Z"/><path class="cls-1" d="m85.75,80.69c-.18-3.12-2.77-5.6-5.88-5.65h0c-3.16,0-5.79,2.39-6.08,5.44l-10.3,110.19c-1.11-1.15-2.66-1.83-4.31-1.83h-11.89l-11.53-12.58c-1.13-1.24-2.75-1.95-4.42-1.95-1.43,0-2.82.51-3.9,1.45l-15.26,13.08H0c1.57-50.53,22.33-97.8,58.56-133.24C95.22,19.75,143.66,0,194.95,0s97.69,18.96,134.06,53.41l-16.59,16.81c-32.04-29.71-73.61-46.05-117.24-46.05s-81.95,15.12-113.39,42.59l-2.21,1.93,2.86.66c1.44.33,2.79.93,4.02,1.76l.95.64.87-.74c29.83-25.4,67.8-39.39,106.91-39.39,41.66,0,81.37,15.58,112,43.91l-20.65,20.93-.81.81c-24.73-23.07-56.86-35.75-90.65-35.75-38.99,0-75.91,17.09-101.29,46.89l-.39.46.78,13.42,2.45-3.19c23.75-30.91,59.63-48.64,98.45-48.64,31.41,0,61.29,11.76,84.33,33.14l-23.81,23.81c-16.66-14.76-38-22.88-60.26-22.88s-43.18,7.96-59.74,22.43c-16.41,14.32-27.15,33.99-30.27,55.39l-.25,1.72h5.46l4.5-5.29.08-.37c8.01-37.62,41.75-64.93,80.22-64.93,19.88,0,38.97,7.19,53.93,20.27l-22.37,22.38c-8.93-7.27-20.09-11.25-31.6-11.25-18.34,0-35.21,10.03-44.03,26.18l-.42.77,5.68,8.99,1.14-2.56c6.64-14.86,21.41-24.46,37.63-24.46,9.13,0,18.03,3.07,25.24,8.67l-20.09,20.09c-1.76-.81-3.67-1.23-5.6-1.23-5.19,0-9.82,2.92-12.08,7.53h-28.27l-12.76-20.21c-.25-.4-.55-.77-.89-1.1-.33-.32-.7-.61-1.1-.85-.4-.24-.82-.43-1.27-.57-.44-.14-.91-.23-1.39-.26-.13-.01-.28-.01-.42-.01h-.18c-.35.02-.68.06-1.01.13-.07.01-.15.03-.23.05-.35.08-.7.2-1.02.35l-.15.07c-.38.19-.7.38-1,.59l-.12.1c-.32.25-.61.52-.87.82l-18.79,22.1h-15.39c-2.53,0-4.74,1.55-5.62,3.89l-6.55-113.26Zm-21.04,3.21c-20.61,23.79-34.3,52.68-39.61,83.53l-.44,2.58,2.45-.92c1.33-.5,2.73-.76,4.15-.77h1.24s.22-1.23.22-1.23c4.87-26.71,16.47-52.1,33.56-73.42l.28-.35,1.21-12.95-3.06,3.54Z"/><path class="cls-1" d="m1488.25,97.07h-76.48l-82.71,175.26h64.56l11.41-29.3h49.26l3.37,29.3h64.3l-33.7-175.26Zm-66.89,105l21.52-53.93,6.48,53.93h-28Z"/></g></svg>