<svg id="Capa_1" data-name="Capa 1" xmlns="http://www.w3.org/2000/svg" viewBox="0 0 431.81 130.66"><defs><style>.cls-1{fill:#fff;}</style></defs><path class="cls-1" d="M4,69a4,4,0,0,1-4-4v-.4A65.74,65.74,0,0,1,51.16.2a4,4,0,1,1,2.07,7.73L53,8A57.79,57.79,0,0,0,8,64.58v.34a4,4,0,0,1-4,4Zm124.14-.64a4,4,0,0,1-4-4A57.75,57.75,0,0,0,78.8,7.9,4,4,0,0,1,80.55.09a66.1,66.1,0,0,1,51.6,64.2,4,4,0,0,1-4,4Z"/><path class="cls-1" d="M104.63,88.54a4,4,0,0,1-3.53-5.87A40.31,40.31,0,0,0,50.44,26.46a4,4,0,1,1-3-7.42,48.31,48.31,0,0,1,60.73,67.42A4,4,0,0,1,104.63,88.54Z"/><path class="cls-1" d="M28.9,88.11l-.24.13a4,4,0,0,1-5.42-1.61A47.83,47.83,0,0,1,17.46,65.8a4,4,0,0,1,8-.35,39.76,39.76,0,0,0,4.83,17.37A4,4,0,0,1,28.9,88.11ZM27.16,49.46a4,4,0,0,1-5.81-5A48.39,48.39,0,0,1,34.12,27.1a4,4,0,0,1,5.23,6A40.33,40.33,0,0,0,28.7,47.7,4,4,0,0,1,27.16,49.46Z"/><path class="cls-1" d="M91.5,104.46a48.22,48.22,0,0,1-12.68,5.64,4,4,0,0,1-3.11-7.37,4.09,4.09,0,0,1,1-.27A40.17,40.17,0,0,0,92.48,93.8a4,4,0,0,1,5.31,6h0A49.42,49.42,0,0,1,91.5,104.46Zm-31.43,6.13a4,4,0,0,1-2.84.55,48.28,48.28,0,0,1-19.89-8.46,4,4,0,0,1,4.71-6.47,40.51,40.51,0,0,0,16.58,7.06,4,4,0,0,1,1.44,7.32Z"/><path class="cls-1" d="M9.82,95A4,4,0,0,1,6.2,92.68,65.4,65.4,0,0,1,1.25,77.55,4,4,0,1,1,9,75.64c0,.12.05.24.07.36a58.11,58.11,0,0,0,4.35,13.29A4,4,0,0,1,9.82,95Z"/><path class="cls-1" d="M95.79,122.56A4,4,0,0,1,94,115.07a58.36,58.36,0,0,0,11.33-8.23,4,4,0,1,1,5.44,5.87A66.31,66.31,0,0,1,98,122.06,4,4,0,0,1,95.79,122.56Z"/><path class="cls-1" d="M117.55,102.35a4.09,4.09,0,0,1-2-.65,4,4,0,0,1-1.15-5.54h0a57,57,0,0,0,6.22-12.54,4,4,0,0,1,7.66,2.32l-.12.33a65.06,65.06,0,0,1-7.07,14.28A4,4,0,0,1,117.55,102.35Z"/><path class="cls-1" d="M66.08,130.65a65.78,65.78,0,0,1-51.55-24.73,4,4,0,1,1,6.08-5.19,1.46,1.46,0,0,1,.16.19,57.83,57.83,0,0,0,45.31,21.74h.15a57.5,57.5,0,0,0,12.27-1.33,4,4,0,1,1,1.7,7.82,66.73,66.73,0,0,1-14,1.51Z"/><path class="cls-1" d="M152.14,94.07V39.4c0-5.66,3.16-8.92,8.38-8.92h18.3c18.62,0,29,8.27,29,23.84S197.76,78.06,179,78.06h-10.7v16c0,4.57-2.4,7.29-7.08,7.29h-2.29C154.54,101.36,152.14,98.86,152.14,94.07Zm40-39.64c0-7.51-4.68-11.43-13.61-11.43H168V66H178.6c8.82,0,13.5-4.06,13.5-11.54Z"/><path class="cls-1" d="M216.6,92.11V39.4c0-5.66,3.16-8.92,8.38-8.92h39.2c5,0,7.41,2.17,7.41,6.42v.56c0,4.36-2.4,6.43-7.41,6.43H232.61v14.9h23.08c5.23,0,7.4,2,7.4,6v.32c0,4.25-2.28,6.21-7.4,6.21H232.61V87.76h32.12c5,0,7.29,1.85,7.29,6v.54c0,4.47-2.28,6.65-7.29,6.65H225C219.76,100.93,216.6,97.77,216.6,92.11Z"/><path class="cls-1" d="M300.12,44.52h-15.9c-4.79,0-7.41-2.39-7.41-6.86v-.54c0-4.36,2.62-6.64,7.41-6.64H331.8c4.9,0,7.41,2.28,7.41,6.64v.54c0,4.47-2.51,6.86-7.41,6.86H316.23V94.07c0,4.79-2.61,7.29-7.19,7.29h-2.28c-4.36,0-6.64-2.5-6.64-7.29Z"/><circle class="cls-1" cx="376.37" cy="11.79" r="9.05"/><path class="cls-1" d="M398.36,30.65a7.45,7.45,0,0,0-.95-.07,6.85,6.85,0,0,0,0,13.69h.24v.19c11.39,1.4,18.16,8.86,18.16,21.08,0,13.83-8.49,21.67-22.43,21.67h-9.69v-43h0V30.46h-7.53c-4.79,0-8.38,3.26-8.38,8.92V92.09a8.88,8.88,0,0,0,8.93,8.82h16.77c23.74,0,38.33-13.62,38.33-35.5C431.82,45,419.28,32.19,398.36,30.65Z"/><path class="cls-1" d="M74.9,68.51c-.87-.38-2.13-2.25-3-4.44-.63-1.6-2.5-6.3-7.61-6.67a1.09,1.09,0,0,0-.36,0h-.29a1,1,0,0,0-.35,0c-5.11.37-7,5.07-7.61,6.67-.87,2.19-2.13,4.06-3,4.44a10.36,10.36,0,0,0-6.16,10.81,9,9,0,0,0,7.9,7.82,11,11,0,0,0,1.52.11A10.36,10.36,0,0,0,60,86.42a16.21,16.21,0,0,0,1.56-.78,6.81,6.81,0,0,1,2.22-.89,6.63,6.63,0,0,1,2.21.89,15.28,15.28,0,0,0,1.57.78,10.36,10.36,0,0,0,4.07.83,11,11,0,0,0,1.52-.11,9,9,0,0,0,7.9-7.82A10.39,10.39,0,0,0,74.9,68.51Zm2.69,10.36a5.41,5.41,0,0,1-5,4.8A7,7,0,0,1,69,83.2c-.42-.18-.83-.4-1.26-.63a9.76,9.76,0,0,0-3.3-1.27,2.24,2.24,0,0,0-.51-.07h-.14a2.33,2.33,0,0,0-.53.07A10.06,10.06,0,0,0,60,82.57c-.43.23-.85.45-1.26.62a6.83,6.83,0,0,1-3.71.48,5.41,5.41,0,0,1-5-4.8,6.89,6.89,0,0,1,4.08-7.15c2.56-1.11,4.26-4.82,4.87-6.37,1.23-3.12,2.64-4.43,4.85-4.49s3.62,1.37,4.85,4.49c.61,1.54,2.31,5.26,4.87,6.37A6.89,6.89,0,0,1,77.59,78.87Z"/><path class="cls-1" d="M71.64,89.4a12.53,12.53,0,0,1-4.91-1c-.65-.28-1.22-.59-1.72-.86A9.14,9.14,0,0,0,63.79,87a8.72,8.72,0,0,0-1.19.58,19.17,19.17,0,0,1-1.76.87,12.55,12.55,0,0,1-6.74.85,11,11,0,0,1-9.72-9.66,12.56,12.56,0,0,1,7.36-13,9.61,9.61,0,0,0,1.94-3.29c2-5,5.1-7.67,9.33-8a3.32,3.32,0,0,1,.63,0H64a3.31,3.31,0,0,1,.63,0c4.23.35,7.37,3,9.33,8a9.61,9.61,0,0,0,1.94,3.29,12.54,12.54,0,0,1,7.35,13,11,11,0,0,1-9.71,9.66A11.66,11.66,0,0,1,71.64,89.4ZM64.8,79.19a12.33,12.33,0,0,1,3.89,1.48c.41.22.76.41,1.07.54a4.88,4.88,0,0,0,2.56.34,3.29,3.29,0,0,0,3.14-3h0a4.71,4.71,0,0,0-2.81-4.89c-3.18-1.39-5.13-5.33-6-7.56-1.19-3-2.14-3.1-2.85-3.12s-1.66.11-2.85,3.12c-.88,2.23-2.83,6.17-6,7.56a4.71,4.71,0,0,0-2.81,4.89,3.28,3.28,0,0,0,3.13,3,4.81,4.81,0,0,0,2.57-.33c.31-.13.66-.32,1.06-.53a12.06,12.06,0,0,1,3.88-1.49,4.2,4.2,0,0,1,1-.11h.1A4.05,4.05,0,0,1,64.8,79.19Z"/><ellipse class="cls-1" cx="56.2" cy="44.84" rx="3.79" ry="4.45"/><path class="cls-1" d="M56.2,51.46c-3.28,0-5.94-3-5.94-6.6s2.66-6.6,5.94-6.6,5.94,3,5.94,6.6S59.48,51.46,56.2,51.46Zm0-8.9c-.89,0-1.64,1-1.64,2.3s.75,2.29,1.64,2.29,1.64-1,1.64-2.29-.75-2.32-1.64-2.32Z"/><ellipse class="cls-1" cx="41.36" cy="55.4" rx="3.79" ry="4.45" transform="translate(-22.16 28.1) rotate(-30)"/><path class="cls-1" d="M42,61.85a6.2,6.2,0,0,1-2-.36,7,7,0,0,1-3.67-3.12c-1.82-3.15-1-7,1.84-8.68s6.63-.41,8.45,2.74a7,7,0,0,1,.86,4.75,5.67,5.67,0,0,1-2.71,3.94A5.49,5.49,0,0,1,42,61.85Zm-1.12-8.59a1.31,1.31,0,0,0-.61.15c-.77.45-.9,1.73-.27,2.81a2.76,2.76,0,0,0,1.39,1.24A1.27,1.27,0,0,0,43,56.85a1.34,1.34,0,0,0,.11-.39,2.67,2.67,0,0,0-.36-1.81A2.44,2.44,0,0,0,40.84,53.26Z"/><ellipse class="cls-1" cx="71.37" cy="44.84" rx="3.79" ry="4.45"/><path class="cls-1" d="M71.38,51.46c-3.28,0-6-3-6-6.6s2.67-6.6,6-6.6,5.94,3,5.94,6.6S74.66,51.46,71.38,51.46Zm0-8.9c-.89,0-1.64,1-1.64,2.3s.75,2.29,1.64,2.29S73,46.1,73,44.86s-.75-2.32-1.64-2.32Z"/><ellipse class="cls-1" cx="86.2" cy="55.41" rx="4.45" ry="3.79" transform="translate(-4.88 102.35) rotate(-60)"/><path class="cls-1" d="M85.66,61.85a5.56,5.56,0,0,1-2.76-.73,5.76,5.76,0,0,1-2.71-3.94,7,7,0,0,1,.87-4.72c1.82-3.15,5.61-4.38,8.44-2.74s3.67,5.53,1.85,8.68a6.89,6.89,0,0,1-3.68,3.06A5.75,5.75,0,0,1,85.66,61.85Zm1.08-8.59a2.44,2.44,0,0,0-2,1.32,2.67,2.67,0,0,0-.36,1.81,1.26,1.26,0,0,0,1.41,1.11,1,1,0,0,0,.39-.11,2.72,2.72,0,0,0,1.39-1.22c.62-1.08.5-2.36-.27-2.81A1.21,1.21,0,0,0,86.74,53.26Z"/></svg>