<?xml version="1.0" encoding="UTF-8" standalone="no"?>
<svg
   viewBox="0 0 132.78 46.839612"
   version="1.1"
   id="svg33"
   sodipodi:docname="petid.svg"
   inkscape:version="1.1 (c68e22c387, 2021-05-23)"
   width="132.78"
   height="46.839611"
   xmlns:inkscape="http://www.inkscape.org/namespaces/inkscape"
   xmlns:sodipodi="http://sodipodi.sourceforge.net/DTD/sodipodi-0.dtd"
   xmlns="http://www.w3.org/2000/svg"
   xmlns:svg="http://www.w3.org/2000/svg"
   xmlns:rdf="http://www.w3.org/1999/02/22-rdf-syntax-ns#"
   xmlns:cc="http://creativecommons.org/ns#"
   xmlns:dc="http://purl.org/dc/elements/1.1/">
  <sodipodi:namedview
     id="namedview35"
     pagecolor="#ffffff"
     bordercolor="#666666"
     borderopacity="1.0"
     inkscape:pageshadow="2"
     inkscape:pageopacity="0.0"
     inkscape:pagecheckerboard="0"
     showgrid="false"
     inkscape:zoom="4.1634146"
     inkscape:cx="138.46807"
     inkscape:cy="27.501465"
     inkscape:window-width="1920"
     inkscape:window-height="1025"
     inkscape:window-x="-8"
     inkscape:window-y="-8"
     inkscape:window-maximized="1"
     inkscape:current-layer="Capa_1-2" />
  <defs
     id="defs25">
    <style
       id="style23">.cls-1{fill:#142386;}</style>
  </defs>
  <title
     id="title27">Recurso 5</title>
  <g
     id="Capa_2"
     data-name="Capa 2"
     transform="translate(-72.23,-1.2999525)">
    <g
       id="Capa_1-2"
       data-name="Capa 1">
      <path
         class="cls-1"
         d="M 72.23,44.66 V 18.71 c 0,-2.69 1.49,-4.24 4,-4.24 h 8.68 c 8.84,0 13.75,3.93 13.75,11.32 0,7.39 -4.75,11.27 -13.7,11.27 h -5.08 v 7.6 c 0,2.17 -1.14,3.46 -3.36,3.46 h -1.09 c -2.07,0 -3.2,-1.19 -3.2,-3.46 z m 19,-18.82 c 0,-3.56 -2.23,-5.43 -6.46,-5.43 h -5 v 10.91 h 5 c 4.23,0 6.43,-1.91 6.43,-5.48 z m 11.63,17.89 v -25 c 0,-2.69 1.5,-4.24 4,-4.24 h 18.61 c 2.38,0 3.51,1 3.51,3 v 0.26 c 0,2.07 -1.13,3 -3.51,3 h -15 v 7.08 h 11 c 2.48,0 3.51,0.93 3.51,2.84 v 0.16 c 0,2 -1.08,2.94 -3.51,2.94 h -11 v 7.81 h 15.25 c 2.37,0 3.46,0.88 3.46,2.84 v 0.26 c 0,2.12 -1.09,3.16 -3.46,3.16 h -18.91 c -2.48,0.08 -3.98,-1.42 -3.98,-4.11 z m 39.65,-22.59 h -7.55 c -2.28,0 -3.52,-1.14 -3.52,-3.26 v -0.26 c 0,-2.06 1.24,-3.15 3.52,-3.15 h 22.59 c 2.33,0 3.51,1.09 3.51,3.15 v 0.26 c 0,2.12 -1.18,3.26 -3.51,3.26 h -7.39 v 23.52 c 0.24482,1.987136 -1.43015,3.681699 -3.42,3.46 h -1.08 c -2.07,0 -3.15,-1.19 -3.15,-3.46 z M 178.68,1.3 c -3.82628,0.017797 -5.72491,4.6483949 -3.01334,7.3474061 C 178.37822,11.346417 182.99996,9.4263227 183,5.6 c 3e-5,-2.3826569 -1.93737,-4.3110821 -4.32,-4.3 z m 10.44,13.25 c -0.14984,-0.0099 -0.30016,-0.0099 -0.45,0 -4.33333,0 -4.33333,6.5 0,6.5 h 0.11 v 0.1 c 5.41,0.66 8.62,4.2 8.62,10 0,6.57 -4,10.29 -10.65,10.29 h -4.6 V 21 21 14.47 h -3.58 c -2.27,0 -4,1.55 -4,4.24 v 25 c 0.022,2.324432 1.91547,4.195599 4.24,4.19 h 8 c 11.27,0 18.2,-6.47 18.2,-16.86 C 205,21.38 199.05,15.28 189.12,14.55 Z"
         id="path29"
         style="fill:#ffffff"
         sodipodi:nodetypes="sssssscsssscsccscccssssssccssssccssssccccsssssssscccsscssssccsccssccccssccscc" />
    </g>
  </g>
  <metadata
     id="metadata3340">
    <rdf:RDF>
      <cc:Work
         rdf:about="">
        <dc:title>Recurso 5</dc:title>
      </cc:Work>
    </rdf:RDF>
  </metadata>
</svg>
