<svg xmlns="http://www.w3.org/2000/svg" viewBox="0 0 158.83 163.85"><g data-name="Capa 2"><g data-name="Capa 1"><path fill="#cce2ea" d="m100.46 151.15-91-43.9a16.61 16.61 0 0 1-7.8-22.2l28.7-59.6a16.69 16.69 0 0 1 20.2-8.6l96.8 31.8a16.56 16.56 0 0 1 9.8 23l-34.6 71.7a16.38 16.38 0 0 1-22.1 7.8Z"></path><path fill="#fff" d="m44.36 121 27.5-24.1s11-5.2 11.6-4.4 11 36.8 9.8 37.1-48.9-8.6-48.9-8.6Z"></path><path fill="#fff" stroke="#17243d" stroke-linecap="round" stroke-linejoin="round" stroke-width="5" d="m93.26 125.15-40.5-16.6a6.91 6.91 0 0 1-3.8-9.1L87 6.85a6.91 6.91 0 0 1 9.1-3.8l40.5 16.6a6.91 6.91 0 0 1 3.8 9.1l-38 92.6a7 7 0 0 1-9.14 3.8Z"></path><path fill="#fff" stroke="#17243d" stroke-linecap="round" stroke-linejoin="round" stroke-width="5" d="M47.66 114.55c30-14.2 17.4-51.5 17.4-51.5 5.7-8.7 7.6-31.9 0-33s-9 7.6-10.1 14.7-18 14.7-24.8 22.9-6.5 25.9-6.5 25.9l-13.1 16.6 40.9 51.2 13.6-17.2s20.2 1.1 32.7-15.8"></path><path fill="none" stroke="#17243d" stroke-linecap="round" stroke-linejoin="round" stroke-width="5" d="m106.16 16.15 10.9 4.1"></path><path fill="#fff" stroke="#17243d" stroke-linecap="round" stroke-linejoin="round" stroke-width="5" d="M105 111.15s-11 2.2-10.4 11.2 13.8 9.3 17 7.4 8.7-5.8 7.8-16.1"></path><path fill="#fff" stroke="#17243d" stroke-linecap="round" stroke-linejoin="round" stroke-width="5" d="M110.46 94s-11.3 5.9-8.6 13.2 15.6 8.4 19.9 5.4 9.3-6.7 6.9-17.5"></path><path fill="#fff" stroke="#17243d" stroke-linecap="round" stroke-linejoin="round" stroke-width="5" d="M118.66 75.55s-11.1 5.4-10.3 13.9 12.5 7.4 12.5 7.4 17.3 1.5 13.9-20.2"></path><path fill="#fff" stroke="#17243d" stroke-linecap="round" stroke-linejoin="round" stroke-width="5" d="M129.36 57.85s-12 .3-13.6 7.9 4.1 13.6 13.6 12.5 15.3-10.6 11.4-18.3-7.9-10.6-7.9-10.6"></path><path fill="#1c91cd" d="M105.06 51.25a2.24 2.24 0 0 1 1.2 2.9l-9.8 23.9 3.8-1.6a2.24 2.24 0 0 1 2.9 1.2 2.24 2.24 0 0 1-1.2 2.9l-8.7 3.7a2.92 2.92 0 0 1-.9.2 2.27 2.27 0 0 1-1.6-.6 1.79 1.79 0 0 1-.5-.7l-3.7-8.8a2.22 2.22 0 0 1 4.1-1.7l1.6 3.8 9.8-23.9a2.37 2.37 0 0 1 3-1.3Zm-6.6-17a2.27 2.27 0 0 0-1.6-.6 1.49 1.49 0 0 0-.9.2l-8.7 3.7a2.22 2.22 0 0 0 1.7 4.1l3.8-1.6L83 64a2.22 2.22 0 0 0 4.1 1.7l9.8-23.9 1.6 3.8a2.24 2.24 0 0 0 2.9 1.2 2.24 2.24 0 0 0 1.2-2.9l-3.7-8.7a1.27 1.27 0 0 0-.44-.95Z"></path></g></g></svg>