<svg xmlns="http://www.w3.org/2000/svg" xml:space="preserve" id="Capa_1" x="0" y="0" version="1.1" viewBox="0 0 198.228 166.435"><style id="style1012">.st1{fill:#fff;stroke:#17243d;strokeWidth:4;strokeMiterlimit:10}</style><path id="path1014" fill="#cce2ea" d="m114.928 164.436-109.9-74.6c-5.2-3.5-6.6-10.7-3.1-15.9l46.1-68c3.5-5.2 10.7-6.6 15.9-3.1l109.9 74.6c5.2 3.5 6.6 10.7 3.1 15.9l-46.1 68c-3.5 5.3-10.7 6.7-15.9 3.1z"></path><path id="path1016" d="M184.228 139.136h-139c-6.6 0-12-5.4-12-12v-86c0-6.6 5.4-12 12-12h139c6.6 0 12 5.4 12 12v86c0 6.6-5.4 12-12 12z" class="st1"></path><path id="path1018" d="M103.528 112.136h-41.6c-5.9 0-10.7-4.8-10.7-10.7v-45.6c0-5.9 4.8-10.7 10.7-10.7h41.7c5.9 0 10.7 4.8 10.7 10.7v45.7c-.1 5.8-4.9 10.6-10.8 10.6z" class="st1"></path><path id="path1020" fill="#1c91cd" d="M173.728 60.136h-31c-3 0-5.5-2.5-5.5-5.5s2.5-5.5 5.5-5.5h31c3 0 5.5 2.5 5.5 5.5s-2.5 5.5-5.5 5.5z"></path><path id="path1022" fill="none" stroke="#17243d" stroke-linecap="round" stroke-linejoin="round" stroke-miterlimit="10" stroke-width="3.018" d="M97.828 55.636c-4.9.9-9.9 11.1-9.9 11.1h-9.8s-4.9-10.2-9.9-11.1c0 0-7.5 8.3-4.9 12v19.5c0 1.2.4 2.4 1.3 3.4 3.2 3.9 11.6 13.1 18.5 13.1s15.3-9.3 18.5-13.1c.9-1 1.3-2.2 1.3-3.4v-19.5c2.3-3.7-5.1-12-5.1-12z"></path><path id="path1024" fill="#17243d" d="M82.728 78.336h2.5c1.6 0 2.5 2 1.3 3.1l-.3.4-2.2 2.2c-.7.7-1.9.7-2.6 0l-2.2-2.2-.3-.4c-1.2-1.2-.3-3.1 1.3-3.1z"></path><path id="path1026" fill="none" stroke="#17243d" stroke-linecap="round" stroke-linejoin="round" stroke-miterlimit="10" stroke-width="2.909" d="M82.728 84.536v8.3"></path><path id="path1028" fill="none" stroke="#17243d" stroke-linecap="round" stroke-linejoin="round" stroke-miterlimit="10" stroke-width="5" d="M131.228 98.136h50m-50 14h50"></path><path id="path1030" d="m67.328 13.636-4.2-.5c-1.7-.2-2.5-2.1-1.5-3.5l2.5-3.4 2.5-3.4c1-1.3 3.1-1.1 3.8.4l1.7 3.9 1.7 3.9c.7 1.5-.6 3.2-2.3 3zm-54.2 67.3-2.2 3.6c-.9 1.4-3 1.4-3.8-.1l-2-3.7-2-3.7c-.8-1.5.3-3.3 2-3.2l4.2.1 4.2.1c1.7 0 2.7 1.9 1.8 3.3z" class="st1"></path></svg>