<svg xmlns="http://www.w3.org/2000/svg" viewBox="0 0 155.18 146.51"><g data-name="Capa 2"><g data-name="Capa 1"><path fill="#cce2ea" d="m142.62 113.15-91.7 32.3a18.79 18.79 0 0 1-21.7-7.1l-26-37.9A18.77 18.77 0 0 1 6 76.15l69.7-64.5a18.74 18.74 0 0 1 28.2 3.1l47.9 70.1a18.69 18.69 0 0 1-9.18 28.3Z"></path><path fill="#fff" stroke="#17243d" stroke-miterlimit="10" stroke-width="4" d="m71.92 8.55-.7 4.2a2.25 2.25 0 0 1-3.6 1.4l-3.3-2.6L61 9a2.23 2.23 0 0 1 .6-3.8l4-1.5 4-1.5a2.17 2.17 0 0 1 2.9 2.4ZM17.32 37.55l-2.2 3.6a2.2 2.2 0 0 1-3.8-.1l-2-3.7-2-3.7a2.16 2.16 0 0 1 2-3.2l4.2.1 4.2.1a2.15 2.15 0 0 1 1.8 3.3Z"></path><path fill="#fff" d="M28.92 125.85a1.27 1.27 0 0 0-.1.6 1.6 1.6 0 0 0 .8 1.4l7.9 5c.3.2.4.2.5.2a3.8 3.8 0 0 0 1-2.6c0-.8-.5-1.5-1.6-2.9l-.9-1.2-.7-.9 6.7-16.1-3.3-6.9ZM69.52 68.55l-11-1.8-8.3-17.6a7.26 7.26 0 0 0-.5-.9 9.89 9.89 0 0 1-4.4-1.7 5 5 0 0 0-2.8 3.1l-6.8 24.7a18.82 18.82 0 0 0-.7 5.3 25.16 25.16 0 0 0 2 8.7l20.5 43a3.16 3.16 0 0 0 2.8 1.7h9a3.55 3.55 0 0 0-2.4-3.3l-4.1-1.4-15-33.35a30.15 30.15 0 0 1-2.6-12.3 28.5 28.5 0 0 1 1.3-8.6l2.6-8.3-3-6 3.6-1.8 5.8 11.4a2 2 0 0 0 1.5 1.2l12.1 2a2.05 2.05 0 0 0 2.4-2 3.07 3.07 0 0 0-2-2.05ZM51 44.35a6.07 6.07 0 0 0 5.4-3.4l2-4a6.77 6.77 0 0 0 .7-2.7 6.06 6.06 0 0 0-11.5-2.7l-2 4a6.77 6.77 0 0 0-.7 2.7 6.06 6.06 0 0 0 6.1 6.1ZM121.62 127.85V125a12.71 12.71 0 0 1 .9-4.3c.9-2.4 1.1-6.1 1.1-9.9a11.74 11.74 0 0 1-7.3-4.3 11.43 11.43 0 0 1-2.8.3h-14.1a25.13 25.13 0 0 0-7.6 1 25.17 25.17 0 0 1-7.4 1 13.73 13.73 0 0 1-9.1-3.3c.5 3.9 5.1 7.3 10 7.3h4V131a2 2 0 0 0 2 2h5.2a.79.79 0 0 0 .8-.8 1.42 1.42 0 0 0-.2-.6l-3.8-3.9v-4.8a7.37 7.37 0 0 1 2.2-5.1 6.48 6.48 0 0 0 1.9-5h4a12 12 0 0 1-.9 4.8c4.8 3 6.9 3.2 15.1 3.2h2v10.1a2 2 0 0 0 2 2h5.2a.79.79 0 0 0 .8-.8 1.42 1.42 0 0 0-.2-.6ZM125.92 96l-3.3-4.9c-.3-.4-1.1-.2-1.1.3v7.5a8 8 0 0 1-1.8 5.6 8.29 8.29 0 0 0 4.9 2.5h9a1.94 1.94 0 0 0 2-2 2.09 2.09 0 0 0-.8-1.6Z"></path><path fill="#17243d" d="m137.42 100.05-8.3-6.6-3.1-4.7a4.71 4.71 0 0 0-3.9-2.1 4.59 4.59 0 0 0-4.6 4.6v7.5a4.46 4.46 0 0 1-.7 2.8L74 74.05a6.09 6.09 0 0 0-4-9.5l-8.9-1.4-7.2-15.3a10.36 10.36 0 0 0 6-5.1l2-4a10.3 10.3 0 0 0 1.1-4.5 10.07 10.07 0 0 0-10.1-10.1 9.94 9.94 0 0 0-9 5.6l-2 4a10.3 10.3 0 0 0-1.1 4.5 9.31 9.31 0 0 0 1.5 5.2 9.44 9.44 0 0 0-3.9 5.1l-6.8 24.7a23 23 0 0 0-.9 6.4A29.24 29.24 0 0 0 33 90l3.6 7.6-11.4 26.7a5.85 5.85 0 0 0-.5 2.2 5.63 5.63 0 0 0 2.6 4.8l7.8 4.9a4.84 4.84 0 0 0 2.7.9 4.3 4.3 0 0 0 2.8-1.1 7.88 7.88 0 0 0 2.3-5.5c0-2.2-1.1-3.7-2.4-5.4-.1-.1-.1-.2-.2-.3l4.4-10.6 9 19a7.15 7.15 0 0 0 6.4 3.9h9a4 4 0 0 0 4-4 7.63 7.63 0 0 0-5.2-7.2l-2.5-.8-14.2-31.8A25.49 25.49 0 0 1 49 82.65a23.87 23.87 0 0 1 1.2-7.4l1.3-4.3.1.1a6.23 6.23 0 0 0 4.5 3.5l12.1 2a3.08 3.08 0 0 0 1 .1 4.87 4.87 0 0 0 1.2-.1l40.9 26.3H99.42a30.47 30.47 0 0 0-8.7 1.1 20.09 20.09 0 0 1-6.3.9 9.44 9.44 0 0 1-8.5-4.9l-1.8-3.8-1.8 3.8a10.62 10.62 0 0 0-1.1 4.9c0 6.4 6.6 12.1 14.1 12.1v14.1a6.12 6.12 0 0 0 6.1 6.1h5.2a4.91 4.91 0 0 0 4.9-4.9 4.76 4.76 0 0 0-1.4-3.4l-2.6-2.7V123a2.71 2.71 0 0 1 .8-2c5.2 3.3 8.2 3.9 15.3 4v6a6.12 6.12 0 0 0 6.1 6.1h5.2a4.91 4.91 0 0 0 4.9-4.9 4.76 4.76 0 0 0-1.4-3.4l-2.6-2.6V125a6.48 6.48 0 0 1 .7-2.9c1-2.8 1.3-6.5 1.3-11.2h6.1a6.06 6.06 0 0 0 6.1-6.1 7.42 7.42 0 0 0-2.6-4.75Zm-91.8-64.4 2-4a6 6 0 0 1 5.4-3.4 6.12 6.12 0 0 1 6.1 6.1 5.44 5.44 0 0 1-.7 2.7l-2 4a6 6 0 0 1-5.4 3.4 6.12 6.12 0 0 1-6.1-6.1 5 5 0 0 1 .7-2.7Zm-10 89.8.7.9a6.23 6.23 0 0 0 .9 1.2c1.1 1.5 1.6 2.2 1.6 2.9a4 4 0 0 1-1 2.6 1 1 0 0 1-.5-.2l-7.9-5a1.6 1.6 0 0 1-.8-1.4 1.27 1.27 0 0 1 .1-.6l10.1-23.5 3.3 6.9Zm33.2-52.9-12.1-2a1.85 1.85 0 0 1-1.5-1.2L49.42 58l-3.6 1.8 3 6-2.6 8.3a28.5 28.5 0 0 0-1.3 8.6 30.5 30.5 0 0 0 2.6 12.3l15 33.4 4.1 1.4a3.3 3.3 0 0 1 2.4 3.3H60a3.16 3.16 0 0 1-2.8-1.7l-20.5-43a25.16 25.16 0 0 1-2-8.7 18.82 18.82 0 0 1 .7-5.3l7-24.7a5 5 0 0 1 2.8-3.1 9.89 9.89 0 0 0 4.4 1.7 7.26 7.26 0 0 1 .5.9l8.3 17.6 11 1.8a2 2 0 0 1-.6 4Zm56 60.5h-5.2a2 2 0 0 1-2-2V121h-2c-8.1 0-10.3-.2-15.1-3.2a12 12 0 0 0 .9-4.8h-4a6.48 6.48 0 0 1-1.9 5 7 7 0 0 0-2.2 5.1v4.8l3.8 3.9a.73.73 0 0 1 .2.6.79.79 0 0 1-.8.8h-5.2a2 2 0 0 1-2-2V113h-4c-5 0-9.5-3.4-10-7.3a13.92 13.92 0 0 0 9.1 3.3 25.17 25.17 0 0 0 7.4-1 25.13 25.13 0 0 1 7.6-1h14.1a12.65 12.65 0 0 0 2.8-.3 12 12 0 0 0 7.3 4.3c0 3.9-.3 7.6-1.1 9.9a12.23 12.23 0 0 0-.9 4.3v2.9l3.8 3.8a.73.73 0 0 1 .2.6c0 .25-.4.55-.8.55Zm8.9-26.2h-9a7.77 7.77 0 0 1-4.9-2.5 8.37 8.37 0 0 0 1.8-5.6v-7.5a.61.61 0 0 1 1.1-.3l3.3 4.9 9 7.3a2.09 2.09 0 0 1 .8 1.6 2.18 2.18 0 0 1-2.1 2.1Z"></path><path fill="#1c91cd" d="M125.42 116.05h-.6a2.65 2.65 0 0 1-2.6-2.6v-1.4a2.65 2.65 0 0 1 2.6-2.6h.6a2.65 2.65 0 0 1 2.6 2.6v1.4a2.65 2.65 0 0 1-2.6 2.6Z"></path></g></g></svg>