<svg xmlns="http://www.w3.org/2000/svg" viewBox="0 0 205 62.03"><defs><style>.cls-1{fill:#142386;}</style></defs><title>Recurso 5</title><g id="Capa_2" data-name="Capa 2"><g id="Capa_1-2" data-name="Capa 1"><path class="cls-1" d="M72.23,44.66V18.71c0-2.69,1.49-4.24,4-4.24h8.68c8.84,0,13.75,3.93,13.75,11.32s-4.75,11.27-13.7,11.27H79.88v7.6c0,2.17-1.14,3.46-3.36,3.46H75.43C73.36,48.12,72.23,46.93,72.23,44.66Zm19-18.82c0-3.56-2.23-5.43-6.46-5.43h-5V31.32h5C89,31.32,91.2,29.41,91.2,25.84Zm11.63,17.89v-25c0-2.69,1.5-4.24,4-4.24h18.61c2.38,0,3.51,1,3.51,3v.26c0,2.07-1.13,3-3.51,3h-15v7.08h11c2.48,0,3.51.93,3.51,2.84v.16c0,2-1.08,2.94-3.51,2.94h-11v7.81h15.25c2.37,0,3.46.88,3.46,2.84v.26c0,2.12-1.09,3.16-3.46,3.16H106.81C104.33,47.92,102.83,46.42,102.83,43.73Zm39.65-22.59h-7.55c-2.28,0-3.52-1.14-3.52-3.26v-.26c0-2.06,1.24-3.15,3.52-3.15h22.59c2.33,0,3.51,1.09,3.51,3.15v.26c0,2.12-1.18,3.26-3.51,3.26h-7.39V44.66a3.1,3.1,0,0,1-3.42,3.46h-1.08c-2.07,0-3.15-1.19-3.15-3.46ZM178.68,1.3A4.3,4.3,0,1,0,183,5.6,4.3,4.3,0,0,0,178.68,1.3Zm10.44,13.25a3.4,3.4,0,0,0-.45,0,3.25,3.25,0,0,0,0,6.5h.11v.1c5.41.66,8.62,4.2,8.62,10,0,6.57-4,10.29-10.65,10.29h-4.6V21h0V14.47h-3.58c-2.27,0-4,1.55-4,4.24v25a4.23,4.23,0,0,0,4.24,4.19h8c11.27,0,18.2-6.47,18.2-16.86C205,21.38,199.05,15.28,189.12,14.55ZM1.9,32.74A1.91,1.91,0,0,1,0,30.85v-.19A31.22,31.22,0,0,1,24.29.09a1.9,1.9,0,0,1,.85,3.71A27.42,27.42,0,0,0,3.8,30.66v.16a1.91,1.91,0,0,1-1.89,1.92Zm58.94-.31a1.89,1.89,0,0,1-1.9-1.89A27.43,27.43,0,0,0,37.41,3.75a1.9,1.9,0,1,1,.83-3.7,31.38,31.38,0,0,1,24.5,30.47,1.9,1.9,0,0,1-1.89,1.91ZM51.35,41A22.93,22.93,0,0,0,22.53,9a1.9,1.9,0,1,0,1.41,3.52A19.15,19.15,0,0,1,48,39.25a1.9,1.9,0,0,0,.79,2.57,1.85,1.85,0,0,0,.88.22A1.9,1.9,0,0,0,51.35,41Zm-37.63.81-.11.06A1.9,1.9,0,0,1,11,41.13a22.78,22.78,0,0,1-2.75-9.89,1.9,1.9,0,0,1,3.8-.17,19,19,0,0,0,2.29,8.25A1.9,1.9,0,0,1,13.72,41.83ZM12.89,23.5a1.9,1.9,0,0,1-2.76-2.35,23.08,23.08,0,0,1,6.07-8.29,1.9,1.9,0,0,1,2.48,2.88,19.17,19.17,0,0,0-5.06,6.91A1.84,1.84,0,0,1,12.89,23.5ZM43.44,49.6a23,23,0,0,1-6,2.68,1.9,1.9,0,0,1-1-3.66,19,19,0,0,0,7.51-4.11,1.9,1.9,0,0,1,2.52,2.84A23.05,23.05,0,0,1,43.44,49.6ZM28.52,52.51a1.92,1.92,0,0,1-1.35.27,23.11,23.11,0,0,1-9.45-4,1.91,1.91,0,0,1-.41-2.66A1.89,1.89,0,0,1,20,45.69,19.35,19.35,0,0,0,27.83,49a1.9,1.9,0,0,1,.69,3.47ZM4.66,45.1A1.9,1.9,0,0,1,2.94,44,31.45,31.45,0,0,1,.59,36.82a1.9,1.9,0,0,1,3.73-.74,27,27,0,0,0,2.06,6.31,1.9,1.9,0,0,1-.91,2.53A2,2,0,0,1,4.66,45.1ZM46.49,58a31.76,31.76,0,0,0,6.12-4.44A1.9,1.9,0,0,0,50,50.72a27.5,27.5,0,0,1-5.38,3.91,1.9,1.9,0,0,0,.84,3.56A1.93,1.93,0,0,0,46.49,58Zm11-10.21A31.49,31.49,0,0,0,60.85,41a1.9,1.9,0,0,0-3.59-1.26,27.23,27.23,0,0,1-2.94,5.95,1.89,1.89,0,0,0,.54,2.63,2,2,0,0,0,1,.31A1.9,1.9,0,0,0,57.49,47.74ZM31.45,62a31.88,31.88,0,0,0,6.62-.72,1.9,1.9,0,1,0-.8-3.71,27.69,27.69,0,0,1-5.83.63h-.07A27.45,27.45,0,0,1,9.86,47.91a1.9,1.9,0,0,0-3,2.38A31.24,31.24,0,0,0,31.37,62Zm4.11-29.5a4.32,4.32,0,0,1-1.43-2.11c-.3-.76-1.19-3-3.61-3.17l-.17,0h-.14l-.17,0c-2.42.18-3.31,2.41-3.61,3.17A4.39,4.39,0,0,1,25,32.53a4.93,4.93,0,0,0-2.93,5.13,4.25,4.25,0,0,0,3.75,3.71,5.81,5.81,0,0,0,.72.05A5,5,0,0,0,28.49,41a6.38,6.38,0,0,0,.74-.37,3.2,3.2,0,0,1,1.05-.42,3,3,0,0,1,1,.42,7.47,7.47,0,0,0,.75.37,4.93,4.93,0,0,0,1.93.39,5.81,5.81,0,0,0,.72-.05,4.25,4.25,0,0,0,3.75-3.71A4.93,4.93,0,0,0,35.56,32.53Zm1.27,4.91a2.57,2.57,0,0,1-2.34,2.29,3.47,3.47,0,0,1-1.77-.23c-.19-.08-.39-.19-.6-.3a4.58,4.58,0,0,0-1.56-.6.66.66,0,0,0-.24,0h-.07a.69.69,0,0,0-.25,0,4.66,4.66,0,0,0-1.56.6c-.21.11-.4.22-.6.3a3.32,3.32,0,0,1-1.76.22,2.57,2.57,0,0,1-2.35-2.28,3.27,3.27,0,0,1,1.94-3.39c1.21-.53,2-2.29,2.31-3,.58-1.49,1.25-2.11,2.3-2.13S32,29.54,32.59,31c.29.73,1.09,2.49,2.31,3A3.25,3.25,0,0,1,36.83,37.44Zm-2.82,5A5.88,5.88,0,0,1,31.68,42a9,9,0,0,1-.82-.4,5.18,5.18,0,0,0-.58-.29,5.86,5.86,0,0,0-.57.28,8,8,0,0,1-.83.41,6,6,0,0,1-3.2.41,5.24,5.24,0,0,1-4.61-4.59,6,6,0,0,1,3.49-6.18A4.64,4.64,0,0,0,25.48,30c.93-2.36,2.42-3.64,4.43-3.81l.3,0h.14l.3,0c2,.17,3.5,1.45,4.43,3.81A4.64,4.64,0,0,0,36,31.61a6,6,0,0,1,3.49,6.18,5.24,5.24,0,0,1-4.61,4.59A6.25,6.25,0,0,1,34,42.44Zm-3.25-4.85a5.76,5.76,0,0,1,1.85.71c.19.11.36.19.51.26a2.29,2.29,0,0,0,1.21.15,1.54,1.54,0,0,0,1.49-1.4h0A2.23,2.23,0,0,0,34.49,35c-1.51-.66-2.44-2.53-2.85-3.59-.57-1.43-1-1.47-1.36-1.48s-.79,0-1.35,1.48c-.42,1.06-1.34,2.93-2.85,3.59a2.24,2.24,0,0,0-1.34,2.32,1.56,1.56,0,0,0,1.49,1.4,2.33,2.33,0,0,0,1.22-.15c.14-.07.31-.15.5-.26a5.53,5.53,0,0,1,1.84-.7,2.12,2.12,0,0,1,.49-.06h0A2,2,0,0,1,30.76,37.59Zm-6.16-6Zm2.08-12.41a2,2,0,0,0-1.8,2.11,2,2,0,0,0,1.8,2.11,2,2,0,0,0,1.8-2.11A2,2,0,0,0,26.68,19.18Zm0,5.24a3,3,0,0,1-2.82-3.13,3,3,0,0,1,2.82-3.14,3,3,0,0,1,2.82,3.14A3,3,0,0,1,26.68,24.42Zm0-4.22c-.42,0-.78.5-.78,1.09s.36,1.09.78,1.09.78-.5.78-1.09S27.1,20.2,26.68,20.2Zm-8.1,4.27a2.14,2.14,0,0,0,2.12,3.66,2.14,2.14,0,0,0-2.12-3.66Zm1.32,4.89a2.93,2.93,0,0,1-1-.16,3.33,3.33,0,0,1-1.74-1.49,3,3,0,0,1,.87-4.12,3,3,0,0,1,4,1.3,3.29,3.29,0,0,1,.41,2.26A2.68,2.68,0,0,1,21.21,29,2.61,2.61,0,0,1,19.9,29.36Zm-.52-4.07a.53.53,0,0,0-.28.07A1,1,0,0,0,19,26.69a1.23,1.23,0,0,0,.66.58.6.6,0,0,0,.85-.5,1.29,1.29,0,0,0-.17-.86A1.17,1.17,0,0,0,19.38,25.29Zm12.7-4a2,2,0,0,0,1.8,2.11,2,2,0,0,0,1.8-2.11,1.82,1.82,0,1,0-3.6,0Zm1.8,3.13a3,3,0,0,1-2.82-3.13,3,3,0,0,1,2.82-3.14,3,3,0,0,1,2.83,3.14A3,3,0,0,1,33.88,24.42Zm0-4.22c-.42,0-.77.5-.77,1.09s.35,1.09.77,1.09.78-.5.78-1.09S34.31,20.2,33.88,20.2Zm5.48,5.2a1.82,1.82,0,1,0,3.12,1.8,1.82,1.82,0,1,0-3.12-1.8Zm1.31,4A2.56,2.56,0,0,1,39.36,29a2.73,2.73,0,0,1-1.29-1.87,3.35,3.35,0,0,1,.41-2.26,2.84,2.84,0,1,1,4.89,2.82,3.38,3.38,0,0,1-1.75,1.49A2.87,2.87,0,0,1,40.67,29.36Zm.51-4.07a1.17,1.17,0,0,0-.93.62,1.29,1.29,0,0,0-.17.86.66.66,0,0,0,.3.48.69.69,0,0,0,.56,0,1.27,1.27,0,0,0,.66-.58,1,1,0,0,0-.13-1.33A.59.59,0,0,0,41.18,25.29Z"/></g></g></svg>