<svg xmlns="http://www.w3.org/2000/svg" xml:space="preserve" viewBox="0 0 131 129" width="400" height="370"><path d="M61.188 128.917c-4.77-.388-9.093-1.1-12.75-2.101-11.164-3.054-20.98-8.732-29.068-16.813-2.006-2.003-4.45-4.748-5.15-5.781-1.271-1.878-.504-4.574 1.596-5.608.686-.338.946-.398 1.695-.393.734.004 1.022.073 1.687.4.7.344.966.591 2.074 1.918 1.544 1.851 5.455 5.778 7.165 7.195 8.982 7.442 18.87 11.664 30.688 13.103 1.415.172 2.785.221 6.25.222 4.887.002 6.142-.1 10.313-.845 2.61-.466 3.51-.493 4.318-.13 2.566 1.151 3.197 4.338 1.244 6.29-.855.856-1.59 1.1-5.063 1.679-2.791.465-4.993.689-8.092.823-2.624.113-5.793.132-6.908.041zM55.5 109.511a48.739 48.739 0 0 1-17.104-7.167c-1.565-1.046-2.19-1.598-2.579-2.271-1.454-2.523.476-5.752 3.42-5.725 1.035.01 1.43.179 3.105 1.327 4.485 3.075 9.326 5.078 15.437 6.384.626.134 1.176.348 1.559.605 2.992 2.014 1.95 6.688-1.588 7.128-.374.047-1.128-.047-2.25-.28zm20.375-.753c-1.09-.333-2.057-1.174-2.522-2.195-.389-.852-.398-2.255-.02-3.078.313-.685 1.065-1.55 1.574-1.814.2-.104 1.274-.488 2.387-.854 5.29-1.742 9.615-4.194 13.769-7.806 1.216-1.058 1.774-1.307 2.937-1.31 1.15-.002 1.85.283 2.732 1.107.78.73 1.18 1.614 1.19 2.63.014 1.64-.667 2.64-3.166 4.646-4.424 3.553-9.924 6.48-15.553 8.277-1.614.515-2.568.63-3.328.397zM94 120.883c-2.43-.742-3.595-3.29-2.488-5.44.427-.83.956-1.276 2.925-2.468 3.252-1.967 5.833-3.846 8.813-6.417 1.914-1.65 2.341-1.867 3.688-1.866 1.23 0 1.986.346 2.845 1.302.665.74.967 1.522.967 2.506 0 1.057-.304 1.784-1.109 2.653-1.47 1.589-5.562 4.854-8.516 6.795-1.986 1.306-4.54 2.767-5.117 2.927-.514.143-1.553.147-2.008.008zm21.094-20.055c-1.84-.68-2.931-2.987-2.283-4.824.102-.29.672-1.322 1.266-2.293a58.984 58.984 0 0 0 4.976-10.226c.629-1.675 1.042-2.305 1.841-2.81 2.442-1.541 5.648.01 5.944 2.875.084.818-.104 1.492-1.174 4.2-1.407 3.566-3.024 6.73-5.3 10.378-1.07 1.713-1.396 2.079-2.239 2.517-.691.36-2.293.456-3.031.183zm11.047-33.469c-.855-.158-1.587-.575-2.194-1.25-.861-.957-1.023-1.55-1.123-4.105-.24-6.111-1.11-10.991-2.944-16.504-6.189-18.597-21.158-32.462-40.37-37.393-1.07-.274-2.122-.583-2.339-.686-.657-.311-1.346-.981-1.737-1.689-.33-.595-.371-.788-.371-1.732 0-1.244.287-1.975 1.094-2.782C77.2.176 78.495-.102 80.336.32c8.282 1.9 17.003 6 24.233 11.393 4.824 3.599 9.747 8.511 13.247 13.219C125.443 35.19 129.843 47.4 130.632 60.5c.17 2.82.114 3.744-.278 4.583-.73 1.56-2.602 2.573-4.213 2.276z" style="fill:#1d4293;fill-opacity:1;stroke:#1d4293;stroke-width:.0304452;stroke-linecap:round;stroke-linejoin:round;paint-order:stroke markers fill"/><path d="M2.657 67.686C1.8 67.344 1.017 66.584.6 65.693c-.359-.773-.42-1.177-.42-2.779-.007-6.957 1.479-14.99 4.072-22.018 1.175-3.185 3.998-8.923 5.792-11.773 4.775-7.589 11.487-14.53 18.724-19.364C35.05 5.56 42.642 2.192 49.586.519c1.844-.443 2.46-.428 3.57.088 1.161.542 1.851 1.552 1.963 2.876.117 1.38-.087 2.112-.808 2.91-.762.844-.719.825-4.466 1.918-4.27 1.245-7.113 2.341-10.624 4.096-13.903 6.948-24.385 19.345-28.958 34.252-1.484 4.84-2.227 9.205-2.498 14.683-.2 4.065-.343 4.724-1.201 5.546-.93.89-2.746 1.261-3.907.798Zm5.764 25.747a4.205 4.205 0 0 1-1.218-.744c-1.022-.954-3.059-5.847-4.534-10.893-1.416-4.842-1.59-6.934-.674-8.135.674-.883 1.38-1.34 2.352-1.522 1.213-.226 2.403.126 3.265.968.761.744.945 1.212 1.744 4.445.742 3.002 1.825 6.258 2.986 8.973.796 1.864.985 2.491.985 3.278 0 1.671-1.133 3.215-2.707 3.687-.86.258-1.35.245-2.199-.057zm50.888 35.255c-6.572-.741-11.62-1.926-17.06-4-6.518-2.487-12.65-6.042-18.207-10.556-3.06-2.485-9.226-8.894-10.01-10.403-.177-.341-.3-.98-.3-1.552.002-2.776 2.816-4.675 5.273-3.56.477.217 1.387 1.077 2.786 2.63 4.494 4.994 8.504 8.418 13.422 11.46 7.137 4.414 15.307 7.195 24.129 8.212 1.17.135 3.677.18 7.16.128 4.694-.07 5.686-.136 8.01-.53 5.014-.852 5.298-.828 6.644.561 1.495 1.543 1.544 3.44.13 5.045-.578.657-.916.864-1.883 1.151-1.343.399-4.584.96-7.19 1.245-2.342.256-11.116.37-12.904.17zm-2.652-19.035c-1.234-.168-5.069-1.193-7.223-1.93-4.486-1.536-11.461-5.34-13.082-7.133-1.338-1.481-1.253-3.442.213-4.954.836-.862 1.682-1.238 2.768-1.232.701.003 1.719.48 3.3 1.544 3.966 2.67 7.859 4.354 13.146 5.687 1.462.369 2.894.794 3.182.944 2.261 1.18 2.714 4.224.899 6.039-.513.512-1.006.812-1.568.954-.45.113-.884.194-.962.18a23.865 23.865 0 0 0-.673-.099zM25.213 87.245c-1.029-.367-1.79-1.223-2.749-3.093-3.007-5.862-4.963-13.387-4.963-19.09 0-1.48.497-2.519 1.568-3.273.61-.43.965-.538 1.946-.593 1.38-.078 2.311.283 3.078 1.194.629.748.772 1.3 1.18 4.567.658 5.262 1.572 8.503 3.734 13.233 1.65 3.612 1.64 4.552-.066 6.241-1.058 1.048-2.307 1.32-3.728.814z" style="fill:#1d4293;fill-opacity:1;stroke:#1d4293;stroke-width:.0430561;stroke-linecap:round;stroke-linejoin:round;paint-order:stroke markers fill"/><path d="M23.45 48.886c-1.416-.505-2.267-1.861-2.284-3.64-.008-.894.115-1.276.975-3.026a52.441 52.441 0 0 1 6.942-10.577c1.729-2.04 4.696-4.859 5.611-5.331 2.194-1.132 4.943.39 5.2 2.88.154 1.488-.265 2.225-2.733 4.805-3.37 3.524-5.425 6.352-7.988 10.993-.698 1.264-1.466 2.557-1.708 2.874-.883 1.16-2.485 1.567-4.015 1.022z" style="fill:#1d4293;fill-opacity:1;stroke:#1d4293;stroke-width:.0430561;stroke-linecap:round;stroke-linejoin:round;paint-order:stroke markers fill"/><path d="M101.879 86.961c-1.307-.647-2.299-2.337-2.1-3.58.061-.381.667-2.03 1.346-3.662 2.23-5.365 2.956-8.109 3.363-12.72.26-2.943.123-8.335-.267-10.519-3.311-18.515-18.03-31.732-36.907-33.142-4.924-.367-9.335.22-15.518 2.065-3.053.912-3.83.984-4.862.45-2.015-1.04-2.712-3.032-1.742-4.979.561-1.126 1.357-1.683 3.676-2.571 5.262-2.018 11.258-2.919 17.865-2.685 6.163.218 11.773 1.503 17.38 3.982 10.062 4.448 18.63 12.615 23.532 22.43 5.181 10.375 6.331 22.955 3.118 34.117-1.263 4.388-3.115 8.645-4.285 9.85-1.273 1.31-3.118 1.697-4.6.964z" style="fill:#002859;fill-opacity:1;stroke:#1d4293;stroke-width:.0430561;stroke-linecap:round;stroke-linejoin:round;paint-order:stroke markers fill"/><path d="M125.158 66.866c-.531-.28-1.143-.791-1.441-1.204-.563-.78-.624-1.168-1.026-6.53-.555-7.411-2.489-14.391-5.857-21.145-2.829-5.672-5.822-9.866-10.314-14.451-4.698-4.796-9.48-8.25-15.568-11.246-3.54-1.742-6.659-2.927-10.754-4.084-3.335-.942-4.097-1.363-4.69-2.59-1.066-2.199.353-5.006 2.709-5.36 2.024-.303 9.434 2.06 15.219 4.852 7.374 3.56 13.19 7.767 18.994 13.74 8.695 8.95 14.493 20.087 16.968 32.594.912 4.606 1.486 11.55 1.078 13.04-.273.997-1.134 1.947-2.223 2.454-1.165.543-1.965.524-3.095-.07zm-10.404 33.691c-.423-.227-1.017-.756-1.32-1.175-.463-.64-.563-.957-.62-1.985l-.07-1.225 1.412-2.433c1.89-3.259 3.314-6.145 4.556-9.24.838-2.087 1.166-2.697 1.767-3.287 1.301-1.275 3.082-1.412 4.643-.355 1.172.792 1.682 1.831 1.573 3.2-.16 2-2.853 8.139-5.507 12.551-2.267 3.77-2.614 4.094-4.565 4.266-.931.082-1.217.034-1.869-.317zm-21.317 19.996c-.935-.466-1.44-.965-1.865-1.844-.68-1.405-.35-3.09.822-4.186.276-.259 1.637-1.191 3.024-2.072 2.772-1.76 4.48-3.01 7.29-5.333 2.535-2.098 2.877-2.288 4.115-2.289 1.299 0 1.997.295 2.801 1.187 1.18 1.308 1.36 3.08.45 4.455-1.299 1.963-8.72 7.546-12.989 9.771-1.5.782-2.53.87-3.648.311z" style="fill:#1d4293;fill-opacity:1;stroke:#1d4293;stroke-width:.0430561;stroke-linecap:round;stroke-linejoin:round;paint-order:stroke markers fill"/><path d="M23.45 48.886c-1.423-.507-2.294-1.901-2.295-3.675 0-.906.136-1.29 1.267-3.558 1.441-2.892 3.718-6.408 5.91-9.126 1.826-2.265 5.313-5.674 6.35-6.209 1.573-.811 3.585-.275 4.65 1.24.472.673.531.9.531 2.037 0 1.53-.046 1.603-3.041 4.792-3.269 3.48-5.121 6.08-7.84 10.998-.684 1.238-1.419 2.438-1.634 2.668-.948 1.017-2.47 1.342-3.898.833z" style="fill:#002859;fill-opacity:1;stroke:#1d4293;stroke-width:.0430561;stroke-linecap:round;stroke-linejoin:round;paint-order:stroke markers fill"/><path d="M2.095 67.373C.578 66.41.177 65.445.177 62.755c0-7.418 1.725-16.055 4.674-23.403 3.429-8.546 8.61-16.188 15.379-22.683C28.188 9.033 38.075 3.492 48.577.783c2.785-.718 3.364-.74 4.577-.176 1.324.616 1.888 1.53 1.972 3.196.072 1.42-.112 1.93-1.028 2.86-.589.597-.762.663-4.777 1.833-10.368 3.021-19.452 8.586-26.387 16.164-4.213 4.604-7.864 10.134-10.215 15.468-3.136 7.117-4.658 13.932-5.035 22.535-.124 2.816-.303 3.472-1.173 4.283-1.139 1.063-3.113 1.253-4.416.427Zm6.326 26.06a4.104 4.104 0 0 1-1.21-.744c-.95-.901-2.39-4.15-3.919-8.84-1.61-4.943-2.198-8.208-1.709-9.494.277-.729 1.4-1.842 2.088-2.069.898-.296 2.335-.264 2.976.067.792.41 1.794 1.599 1.996 2.37.097.37.384 1.508.637 2.528.729 2.936 1.618 5.66 2.82 8.642 1.349 3.346 1.427 3.674 1.148 4.836-.376 1.57-2.158 2.984-3.723 2.955-.231-.004-.728-.117-1.104-.251zm16.591-6.258c-.965-.439-1.715-1.344-2.642-3.19-2.982-5.937-4.87-13.238-4.87-18.834 0-2.404 1.266-3.828 3.515-3.955 1.38-.078 2.311.283 3.078 1.194.63.75.778 1.311 1.188 4.52.664 5.202 1.643 8.654 3.801 13.407 1.543 3.399 1.542 4.436-.008 6.015-1.167 1.19-2.63 1.493-4.062.843zM58.445 128.6c-5.228-.631-9.14-1.493-13.642-3.004-8.06-2.706-15.226-6.744-21.645-12.2-1.832-1.556-6.306-6.062-7.767-7.821-1.427-1.718-1.675-2.225-1.665-3.398.022-2.785 2.828-4.676 5.277-3.559.478.218 1.521 1.209 3.208 3.046 5.106 5.56 9.17 8.856 15.115 12.253 6.148 3.515 13.7 5.954 21.374 6.904 2.51.31 9.64.363 12.453.091.972-.094 3.08-.38 4.684-.635 3.443-.548 3.983-.478 5.233.674 1.528 1.408 1.649 3.614.28 5.128-.343.381-.842.805-1.107.942-.668.346-4.377 1.069-7.234 1.41-3.386.405-11.807.503-14.564.17zm-1.788-18.936c-5.427-1.12-8.738-2.256-13.349-4.582-3.01-1.518-6.024-3.46-6.932-4.466-.605-.67-1.017-1.639-1.02-2.396-.004-1.366 1.434-3.269 2.74-3.626 1.53-.419 2.017-.26 5.01 1.636 4.271 2.704 8.415 4.424 13.531 5.616 2.473.576 3.477 1.234 4.076 2.668 1.124 2.689-1.268 5.726-4.056 5.15zm18.733-1.194c-.71-.309-1.666-1.28-1.965-1.995-.31-.742-.307-2.204.006-2.952.503-1.204 1.275-1.727 3.917-2.651 5.417-1.897 8.74-3.728 12.943-7.134 1.012-.82 2.11-1.604 2.438-1.741 1.657-.693 3.808.172 4.68 1.881.462.905.465 2.429.007 3.326-1.19 2.33-8.288 7.093-14.373 9.642-4.094 1.715-6.347 2.193-7.654 1.624zm18.213 12.2c-1.437-.628-2.375-2.006-2.382-3.5-.005-1.025.232-1.675.847-2.326.26-.277 2.066-1.562 4.01-2.855 1.945-1.294 4.53-3.173 5.745-4.175 3.399-2.803 3.708-2.985 5.065-2.985 1.33 0 1.88.24 2.75 1.202 1.196 1.325 1.35 3.128.383 4.504-1.468 2.088-9.319 7.972-13.054 9.783-1.343.651-2.42.764-3.364.352zm21.151-20.113c-.423-.227-1.017-.756-1.32-1.175-.464-.64-.563-.957-.621-1.99l-.07-1.228 1.594-2.783c2.075-3.624 2.659-4.805 4.216-8.528 1.088-2.601 1.408-3.197 2.009-3.74 1.472-1.33 3.673-1.249 5.113.19 1.416 1.417 1.398 2.725-.09 6.426-2.285 5.688-5.939 12.053-7.33 12.773-.292.151-1.027.319-1.632.372-.931.082-1.217.034-1.869-.317zm10.383-33.699c-.561-.293-1.145-.778-1.436-1.193-.546-.779-.674-1.585-1.017-6.399-.8-11.245-4.936-21.901-12.092-31.155-1.752-2.267-6.665-7.235-8.945-9.046a59.162 59.162 0 0 0-14.85-8.633c-1.546-.617-4.495-1.583-8.342-2.73-1.737-.519-2.428-1.01-2.958-2.105-.992-2.05.166-4.673 2.317-5.252.998-.269 2.19-.1 5.126.73 8.394 2.373 16.673 6.69 23.656 12.337 2.479 2.004 7.871 7.42 9.792 9.834 6.574 8.262 10.901 17.642 13.007 28.196.911 4.565 1.49 11.547 1.081 13.04-.273.997-1.134 1.947-2.223 2.454-1.169.544-1.963.525-3.116-.078z" style="fill:#002859;fill-opacity:1;stroke:#1d4293;stroke-width:.0430561;stroke-linecap:round;stroke-linejoin:round;paint-order:stroke markers fill"/></svg>